{"title":"Hop 2011 DVDrip English Klam","uid":6574816,"size":1473314543,"categoryP":"video","categoryS":"movies","magnet":"?xt=urn:btih:9db53ac4160a14df0b0b7665fab3bfbaa9bf4b50&amp;dn=Hop+2011+DVDrip+English+Klam&amp;tr=udp%3A%2F%2Ftracker.openbittorrent.com%3A80&amp;tr=udp%3A%2F%2Fopen.demonii.com%3A1337&amp;tr=udp%3A%2F%2Ftracker.coppersurfer.tk%3A6969&amp;tr=udp%3A%2F%2Fexodus.desync.com%3A6969","seeders":0,"leechers":1,"uploader":"Klambake","files":-1,"time":1312148137,"description":"With the voices of James Marsden, Kaley Cuoco and Russell Brand\n\nIn Hop gaat de paashaas met pensioen. Zijn 17-jarige zoon E.B. (de afkorting van Easter Bunny) krijgt de verantwoordelijkheid over de chocoladeproductie op Paaseiland. Omdat E.B. liever een rockster wil worden, vlucht hij naar de mensenwereld. Hij komt terecht in Hollywood waar hij vriendschap sluit met de 20-jarige Fred en wonderlijke avonturen beleeft. Intussen ontstaat er op Paaseiland een strijd om de macht tussen de kuikens en de konijnenhulpjes van de Paashaas.\n\nE.B., the Easter Bunny's teenage son, heads to Hollywood, determined to become a drummer in a rock 'n' roll band. In LA, he's taken in by Fred after the out-of-work slacker hits E.B. with his car.\n\n------------------ Dutch Friends ------------------\nYou can find my Friends at: http://www.Film-Test.nl \n------ They got my dutchs subs ---- and more ------\n\nGeneral:\n\nComplete name                    : Hop\\Hop.avi\nFormat                           : AVI\nFormat/Info                      : Audio Video Interleave\nFile size                        : 1.37 GiB\nDuration                         : 1h 31mn\nOverall bit rate                 : 2 154 Kbps\n\nVideo:\n\nFormat                           : MPEG-4 Visual\nFormat profile                   : Simple@L3\nFormat settings, BVOP            : No\nFormat settings, QPel            : No\nFormat settings, GMC             : No warppoints\nFormat settings, Matrix          : Default (H.263)\nCodec ID                         : XVID\nCodec ID/Hint                    : XviD\nDuration                         : 1h 31mn\nBit rate                         : 1 759 Kbps\nWidth                            : 652 pixels\nHeight                           : 352 pixels\nDisplay aspect ratio             : 1.852\nFrame rate                       : 25.000 fps\nColor space                      : YUV\nChroma subsampling               : 4:2:0\nBit depth                        : 8 bits\nScan type                        : Progressive\nBits/(Pixel*Frame)               : 0.307\nStream size                      : 1.12 GiB (82%)\nWriting library                  : XviD 1.1.2 (UTC 2006-11-01)\n\nAudio:\n\nFormat                           : AC-3\nFormat/Info                      : Audio Coding 3\nMode extension                   : CM (complete main)\nCodec ID                         : 2000\nDuration                         : 1h 31mn\nBit rate mode                    : Constant\nBit rate                         : 384 Kbps\nChannel(s)                       : 6 channels\nChannel positions                : Front: L C R, Side: L R, LFE\nSampling rate                    : 48.0 KHz\nBit depth                        : 16 bits\nStream size                      : 250 MiB (18%)\nAlignment                        : Aligned on interleaves\nInterleave, duration             : 32 ms (0.80 video frame)\n\n","torrent":{"xt":"urn:btih:9db53ac4160a14df0b0b7665fab3bfbaa9bf4b50","amp;dn":"Hop+2011+DVDrip+English+Klam","amp;tr":["udp%3A%2F%2Ftracker.openbittorrent.com%3A80","udp%3A%2F%2Fopen.demonii.com%3A1337","udp%3A%2F%2Ftracker.coppersurfer.tk%3A6969","udp%3A%2F%2Fexodus.desync.com%3A6969"],"infoHash":"9db53ac4160a14df0b0b7665fab3bfbaa9bf4b50","infoHashBuffer":{"type":"Buffer","data":[157,181,58,196,22,10,20,223,11,11,118,101,250,179,191,186,169,191,75,80]},"announce":[],"urlList":[]}}